<?xml version="1.0" encoding="utf-8"?>
<!-- Generator: Adobe Illustrator 19.0.0, SVG Export Plug-In . SVG Version: 6.00 Build 0)  -->
<svg version="1.1" id="Layer_1" xmlns="http://www.w3.org/2000/svg" xmlns:xlink="http://www.w3.org/1999/xlink" x="0px" y="0px"
	 viewBox="0 0 375 375" style="enable-background:new 0 0 375 375;" xml:space="preserve">
<style type="text/css">
	.st0{fill:#FFFFFF;}
</style>
<g>
	<g>
		<path class="st0" d="M171,376c-56.7,0-113.3,0-170,0C1,251,1,126,1,1c125,0,250,0,375,0c0,125,0,250,0,375c-56.7,0-113.3,0-170,0
			c-0.1-1,0.6-1,1.3-1c3-0.1,6.1-0.2,9.1-0.8c2.8-0.5,5.7-1,8.5-1.5c2.9-0.4,5.9-0.9,8.7-1.8c4.3-1.4,8.6-2.5,12.9-3.8
			c5.2-1.6,10.3-3.5,15.2-5.6c4.1-1.7,8.3-3.4,12.2-5.6c3-1.7,6-3.3,8.9-5c2.3-1.3,4.6-2.6,6.8-4.1c4.1-2.8,8-5.8,11.9-8.7
			c5-3.7,10-7.5,14.5-11.8c4.7-4.6,9.3-9.2,13.6-14.3c4.3-5.2,8.8-10.3,12.6-15.9c4.7-7,9.4-13.9,12.8-21.7c1-2.4,1.1-2.4-0.9-3.5
			c-0.7-0.4-1.4-0.7-2.1-1c-1.6-1.6-3.8-2.4-5.8-3.3c-2.3-1-4-3-6.5-3.7c-1.2-0.3-2.1-1.6-3.2-1.8c-1-0.2-2-1.7-3.1-0.2
			c-0.4-1.3-1.1-2.3-2.1-3.1c-0.5-0.4-0.9-1-1.7-0.8c-1.8,0.5-3-0.9-4.4-1.4c-1.5-0.5-2.8-1.5-4.3-1.6c-4.3-0.3-8-2.5-11.9-3.8
			c-5.5-1.9-10.7-4.6-16.1-6.9c-6.2-2.7-12.8-4.5-19-7.3c-2.1-0.9-4.7-0.9-6.3-2.9c-3.7,0-6.9-2-10.6-2.1c-3.4-0.1-5.6-2.1-5.9-5.5
			c-0.2-2.2-1.7-4.2-1.2-6.6c0.2-0.8-0.8-1.7-1.9-1.9c0.4-2.2,0.6-4.6,2.5-5.9c0.8-0.6,2.6-1,2.1-1.8c-1.2-2,1.2-1.9,1.3-2.9
			c0-0.3-0.1-0.7,0-1c0.2-0.8-0.7-2.3,0.9-2.4c2.6-0.1-0.7-1.5,0.6-2.2c3.9-1.9,2.7-6.9,5.3-9.6c-2.4-2.2,2-0.5,1.3-2.3
			c-0.7-1.8,1.5-3.5,0.9-5.6c-0.2-0.8-0.5-2,0.6-2.7c1.4-0.8,1.4-2.1,1.3-3.5c-0.2-2.8,1.4-5.2,1.3-8c0-0.8,1.5-1.2,1.7-2.2
			c0.2-1-1.2-1.4-1-2.6c0.5-3.2-0.9-6.6,0.7-9.7c0.5-1-0.8-1-0.8-2c0.1-1.4,2.1-0.3,1.8-1.5c-0.1-0.6-1.4-1.2,0.3-1.4
			c0.7-0.1,1.8,0.4,1.9-0.9c0.1-0.8-0.6-0.8-1.1-1.2c-1.5-0.9-3.5-2-2.7-4c0.6-1.6,2.6-2,4.4-1.9c1.3,0,2-1.1,1.5-2.2
			c-1.1-2.5-2.5-4.8-5.1-6.1c0.8-0.8,1.3-1.3,2-2c-1-1-1.9-2.1-2.9-3.1c0.4-0.9,2.3,0,2-1.6c-0.2-1.2,0.5-1.8,1.1-2.5
			c2-2.2,2.2-3.1,1.9-6.4c-0.1-0.9-0.5-2.6,0.4-2.7c2.2-0.3,1.6-1.7,1.6-2.9c-0.1-2.4,0.9-4.6,1.8-6.8c0.4-1.1,1-2.3,1.4-3.4
			c0.9-2.2,0.2-4.7,1-6.5c0.8-1.7,0.9-3.2,0.7-4.7c-0.2-1.8,1-3,1.1-4.6c0.1-1.1-1.6-1.9-0.1-3.2c1.4-1.3-2-2.4-0.7-3.9
			c1.1-1.2,0.5-2.5,0.7-3.7c0.2-1.4-0.2-2.5-1.3-3.5c-0.8-0.7-1.5-1.8-1.6-2.8c-0.3-3.5-1.7-6.6-3-9.8c-0.8-1.9,1.5-1.2,1.9-2
			c-0.4-0.4-0.7-0.7-1.1-1.1c-0.8-0.9-2.5-1.6-1-3.3c0.3-0.3-0.1-1.1-0.6-1.1c-1.9,0.2-1.1-2.2-2.4-2.5c0.7-2.3-1.3-4.2-1.1-6.6
			c0.2-2.1,0-2.2-1.1-2.3c-2-0.1,0-2.7-1.4-2.5c-2,0.2-1-2-2.1-2c-2.1,0-1.1-1.5-1.4-2.5c-0.2-0.5-0.6-0.6-1.2-0.6
			c-1.1,0.1-1.5-0.1-1.9-1.4c-0.7-2.5-3-4-5-5.5c-1.2-0.9-2-2.1-3.3-2.9c-1.4-0.8-1.2-2.7-2.5-3.5c-1.3-0.8-2.8-1.2-4.3-1.7
			c-0.9-0.3-1.3-1-1.9-1.5c-1.3-1.1-2.2-3.1-4.5-2.5c-1-1.7-2.8-2-4.5-2.4c-0.3-0.1-0.5-0.4-0.7-0.4c-0.9,0.2,0.2,2-1,1.6
			c-0.8-0.3,0.1-1.7-0.4-2.2c-1.1-1.1-1.8-2.8-3.9-2.6c-0.8,0.1-1.7-1.2-2.6-0.1c-0.7-1.5-2.3-0.7-3.5-1.3c-2.7-1.6-5.7-2.2-8.9-2.7
			c-3.2-0.6-6.2-1.4-9.3,0c-0.3,0.1-0.7,0.1-0.7-0.3c0.1-1.5-0.7-1.6-1.8-1.5c-1.4,0.1-2.8-0.2-4,0.8c-1.2-1.5-2.8-0.5-4.2-0.8
			L189,3.5c-1.6-0.5-3.3,1.4-4.8,0.2c-1.1-0.9-2.2-0.5-3.5-0.6c-0.1,0,0.1,0,0.2,0c-0.1-0.3-0.1-0.5-0.3-0.8
			c-0.2-0.3-0.5-0.2-0.6,0.2c0,0.1,0.3,0.4,0.7,0.6c-0.2,1.9-1.8,0.6-3,1c-0.1,0,0.1,0,0.2,0c-0.1-0.3-0.1-0.5-0.3-0.8
			c-0.2-0.3-0.5-0.2-0.6,0.2c0,0.1,0.3,0.4,0.7,0.6c-0.1,1.9-2,1.2-2.5,0.9c-1.4-0.8-2.9-0.5-3.7,0.2c-1.2,1-2.4,0.8-3.7,0.9
			c-0.6,0-1.7-0.3-1.8,0.4C166,9,164.1,7.7,162.9,8c-0.9,0.2-2.6-0.4-2.7,0.5c-0.2,1.9-1.3,1.5-2.4,1.5c-2.4,0,1.8,1.8-0.7,2.1
			c-1.8,0.2-2.8,2.2-5.2,2.1c-1.5,0-3,2-4.9,2.3c0.1,2.2-2.2,2.2-3.2,2.9c-1.5,1-1.7,3.1-3.4,3.5c-1.6,0.4-1.5,2.5-3.4,2.7
			c-1,0.1-0.7,1.8-1.5,2.3c-0.3,0.2-1-1.7-1.6,0.4c-0.8,2.8-1.8,5.9-5.3,6.8c-0.2,0.1-0.6,0.5-0.6,0.7c0.2,3.6-4.3,5.8-3.1,9.8
			c0.1,0.4-0.6,1.4-1,2c-2.4,3.7-2.5,3.7-2.9,6.7c-0.1,0.5-0.4,0.9-1.2,0.8c-0.1,0,0.1,0,0.2,0c-0.1-0.3-0.1-0.5-0.3-0.8
			c-0.2-0.3-0.5-0.2-0.6,0.2c0,0.1,0.3,0.4,0.7,0.6c0.7,1.4-1.5,2.6-0.6,3.5c1.4,1.4,0.4,2.2-0.1,3.3c-1.9,3.8-3.6,7.8-3.1,12.2
			c0.1,0.6,0.3,1.3-0.3,1.9c-1.3,1.1-2.4,2.1-0.7,4c0.7,0.7-1.7,1.8-0.9,3c1.2,1.7,0.3,3.1,0,4.7c-0.6,3.2,0.5,6.4,1.5,9.3
			c0.5,1.3-1.6,1.9-0.3,2.8c1.3,0.8,0.5,2.1,1,3.1c2.7,4.9,2.6,4.9,2.8,8.8c0,0.5,1.3,5,1.6,5.5c0.8,1.1,0.5,2.3,0.3,3.3
			c-0.3,1.5-1.9-1.2-1.8,0.2c0.3,2.5-1,4.7-1.2,7.1c-0.4,4.3,1.5,8.2,1.1,13.5c1.5-2.6,0.3-4.6,1.9-6.8c0,2,0,3.3,0,4.6
			c0,0.6,0.3,1.1,0.7,1.1c2.8-0.5,2.2,1.4,2.3,3c0.2,1.9-0.6,3.4-1.5,4.9c-0.8,1.4-0.9,2.8-0.1,4c0.5,0.8,0.5,1.8,1.3,2.5
			c0.6,0.6-0.2,1.9,0.7,2.7c0.6,0.6-0.9,1.7,0.4,2.6c0.5,0.3,0.1,1.9,0.1,2.9c0,0.7-0.1,1.2,0.9,1.4c2,0.4,1.2,1.4,0.3,2.3
			c-0.6,0.7-1.9,1.3-0.9,2.4c1,1-0.1,1.3-0.2,1.8c0,0.5,1.3,1,0.1,1.8c1,1.4-1.7,4.4,2,4.7c0.9,0.1,0.8,0.8,0.8,1.5
			c-0.1,1.2-0.1,2.3,0.9,3.1c-2.2,1.9,0.7,1.1,0.9,1.8c0.1,0.4,0.2,1,0,1.3c-0.3,0.5-0.6,0.6-0.3,1.5c0.9,2.5,2,5,3.5,7
			c1,1.3,0.3,3.4,1.6,3.8c2.6,0.8,1,2.7,1.4,4c0.2,0.5,0.2,1,0.6,1.2c2.5,1.1,0.1,5,3.4,5.5c-0.2,1.2,0.1,2.4-0.7,3.7
			c-2.7,5-6,9.5-9.3,14.1c-0.8,1.1-1.8,1.7-3.3,1.6c-3.2-0.1-6.5-0.4-9.6,0.9c-4.7,2-9.8,2.8-14.8,4.1c-4.3,1.1-9,1.9-12.7,4.2
			c-4.9,2.9-10.4,3.2-15.6,4.7c-4.8,1.3-9.8,1.7-14.1,4.7c-0.4,0.2-0.5,0.4-0.7,0.1c-1.7-2-3,0.2-4.1,0.8c-3.1,1.7-6.9,2-9.6,4.5
			c-4.5-0.2-7.9,2.8-11.8,4.2c-4.2,1.5-8.2,3.5-12.5,4.9c-1.2,0.4-2.3,1-3.3,1.6c-0.5,0.3-1.4,1.1-0.9,1.5c1.4,1.3,0.4,3.2,1.2,4.5
			c3.5,6.7,6.7,13.6,11,19.9c3.1,4.7,6.2,9.5,9.7,14c3.7,4.8,7.4,9.7,11.5,14.2c7.4,8.1,15.6,15.4,24.3,22.2
			c1.8,1.4,3.9,2.8,5.7,4.1c4.1,3,8.3,5.7,12.6,8.2c4.4,2.6,8.7,5.5,13.4,7.4c5.7,2.4,11.2,5.1,17,7.1c4.4,1.5,8.7,3.3,13.3,4.2
			c4.6,0.9,9,2.6,13.7,3.1c2.8,0.3,5.7,1.7,8.7,1.7c3.3,0,6.3,1.7,9.6,1.1C169.5,374.9,170.8,374.3,171,376z M277,142.5
			c0-1.7,0-2.5,0-3.3c0-4.3,0-8.6,0-12.9c0-2.4-0.7-2.8-2.9-1.9c-3,1.3-3.9,3.8-2.5,6.8c0.3,0.6,0.3,1.3,0.7,1.7
			c1.9,1.9,2.5,4.3,2.6,6.9C275,140.9,275.9,141.3,277,142.5z M270.4,156c1.1-1,2-2.3,3.5-2.6c0,0-0.2-1.3-0.3-1.2
			c-0.8,1-2.4-0.5-2.6,0.5C270.9,153.8,269.3,154.4,270.4,156z"/>
		<path d="M247.8,218.5c1.3-1.3,2.3-0.5,2.1,0.3c-0.5,2.4,0.9,4.4,1.2,6.6c0.4,3.5,2.5,5.4,5.9,5.5c3.7,0.1,6.9,2.2,10.6,2.1
			c1.6,2.1,4.2,2,6.3,2.9c6.2,2.7,12.7,4.6,19,7.3c5.4,2.3,10.6,5,16.1,6.9c3.9,1.3,7.6,3.5,11.9,3.8c1.5,0.1,2.8,1.1,4.3,1.6
			c1.5,0.5,2.7,1.8,4.4,1.4c0.7-0.2,1.2,0.3,1.7,0.8c1,0.9,1.7,1.9,2.1,3.1c1.1-1.5,2.1,0,3.1,0.2c1.1,0.2,2.1,1.5,3.2,1.8
			c2.5,0.7,4.2,2.7,6.5,3.7c2,0.9,4.2,1.7,5.8,3.5c0,0.1,0-0.1,0-0.2c-0.3,0.1-0.5,0.1-0.8,0.3c-0.3,0.2-0.2,0.5,0.2,0.6
			c0.1,0,0.4-0.3,0.6-0.7c0.7,0.1,1.4,0.4,2.1,0.8c2,1.2,2,1.2,0.9,3.5c-3.4,7.7-8.1,14.7-12.8,21.7c-3.8,5.6-8.2,10.7-12.6,15.9
			c-4.2,5.1-8.9,9.7-13.6,14.3c-4.5,4.3-9.5,8.1-14.5,11.8c-4,2.9-7.9,5.9-11.9,8.7c-2.2,1.5-4.5,2.8-6.8,4.1c-3,1.7-5.9,3.3-8.9,5
			c-3.9,2.2-8.1,3.8-12.2,5.6c-4.9,2.1-10,4-15.2,5.6c-4.3,1.3-8.6,2.4-12.9,3.8c-2.8,0.9-5.8,1.4-8.7,1.8c-2.8,0.4-5.7,1-8.5,1.5
			c-3.1,0.5-6.1,0.6-9.1,0.8c-0.7,0-1.4,0-1.3,1c-11.7,0-23.3,0-35,0c-0.2-1.7-1.5-1.1-2.3-0.9c-3.3,0.6-6.3-1.1-9.6-1.1
			c-3,0-5.8-1.4-8.7-1.7c-4.7-0.6-9.1-2.3-13.7-3.1c-4.6-0.9-8.9-2.6-13.3-4.2c-5.8-2-11.3-4.8-17-7.1c-4.7-1.9-9-4.8-13.4-7.4
			c-4.3-2.5-8.6-5.2-12.6-8.2c-1.9-1.4-3.9-2.7-5.7-4.1c-8.7-6.8-16.9-14.1-24.3-22.2c-4.1-4.5-7.8-9.3-11.5-14.2
			c-3.5-4.5-6.6-9.3-9.7-14c-4.2-6.3-7.4-13.2-11-19.9c-0.7-1.4,0.3-3.2-1.2-4.5c-0.5-0.4,0.4-1.2,0.9-1.5c1.1-0.6,2.2-1.2,3.3-1.6
			c4.3-1.4,8.3-3.4,12.5-4.9c3.9-1.4,7.3-4.3,11.8-4.2c2.7-2.5,6.5-2.8,9.6-4.5c1.1-0.6,2.3-2.8,4.1-0.8c0.2,0.3,0.4,0.1,0.7-0.1
			c4.2-3,9.3-3.3,14.1-4.7c5.2-1.5,10.6-1.7,15.6-4.7c3.7-2.2,8.4-3.1,12.7-4.2c5-1.2,10.1-2,14.8-4.1c3.1-1.3,6.4-1.1,9.6-0.9
			c1.6,0.1,2.6-0.5,3.3-1.6c3.3-4.6,6.6-9.1,9.3-14.1c0.7-1.3,0.5-2.5,0.7-3.7c-3.3-0.5-0.9-4.5-3.4-5.5c-0.4-0.2-0.5-0.7-0.6-1.2
			c-0.4-1.3,1.3-3.2-1.4-4c-1.3-0.4-0.7-2.4-1.6-3.8c-1.5-2-2.6-4.5-3.5-7c-0.3-0.8,0-1,0.3-1.5c0.2-0.4,0.1-0.9,0-1.3
			c-0.1-0.6-3.1,0.1-0.9-1.8c-1-0.8-1-1.9-0.9-3.1c0.1-0.6,0.2-1.4-0.8-1.5c-3.6-0.4-1-3.3-2-4.7c1.2-0.8-0.2-1.3-0.1-1.8
			c0.1-0.6,1.1-0.8,0.2-1.8c-1-1,0.3-1.7,0.9-2.4c0.9-0.9,1.7-1.9-0.3-2.3c-0.9-0.2-0.9-0.8-0.9-1.4c0-1,0.4-2.6-0.1-2.9
			c-1.3-0.9,0.3-2-0.4-2.6c-0.9-0.8-0.1-2.1-0.7-2.7c-0.8-0.7-0.8-1.7-1.3-2.5c-0.8-1.3-0.8-2.6,0.1-4c0.9-1.5,1.6-3,1.5-4.9
			c-0.1-1.6,0.4-3.5-2.3-3c-0.5,0.1-0.7-0.5-0.7-1.1c0-1.3,0-2.6,0-4.6c-1.7,2.2-0.4,4.1-1.9,6.8c0.4-5.3-1.5-9.2-1.1-13.5
			c0.2-2.4,1.4-4.5,1.2-7.1c-0.1-1.4,1.5,1.3,1.8-0.2c0.2-1,0.5-2.3-0.3-3.3c-0.4-0.5-1.6-5-1.6-5.5c-0.1-4-0.1-4-2.8-8.8
			c-0.5-1,0.3-2.3-1-3.1c-1.3-0.8,0.8-1.4,0.3-2.8c-1.1-3-2.1-6.1-1.5-9.3c0.3-1.6,1.2-3,0-4.7c-0.8-1.1,1.5-2.2,0.9-3
			c-1.7-1.9-0.5-2.9,0.7-4c0.6-0.6,0.4-1.3,0.3-1.9c-0.5-4.5,1.1-8.4,3.1-12.2c0.6-1.1,1.5-1.9,0.1-3.3c-0.9-0.9,1.4-2.1,0.9-3.5
			c0.6,0.1,0.9-0.3,1-0.8c0.4-3,0.5-3,2.9-6.7c0.4-0.6,1.1-1.6,1-2c-1.2-4,3.3-6.2,3.1-9.8c0-0.2,0.3-0.6,0.6-0.7
			c3.5-0.9,4.5-4,5.3-6.8c0.6-2.1,1.3-0.2,1.6-0.4c0.8-0.5,0.4-2.2,1.5-2.3c1.9-0.1,1.7-2.3,3.4-2.7c1.7-0.4,1.9-2.5,3.4-3.5
			c1.1-0.7,3.3-0.8,3.2-2.9c1.9-0.3,3.5-2.3,4.9-2.3c2.3,0.1,3.4-2,5.2-2.1c2.4-0.2-1.7-2.1,0.7-2.1c1.1,0,2.2,0.4,2.4-1.5
			c0.1-0.9,1.8-0.3,2.7-0.5c1.2-0.3,3.1,1,3.3-1.6c0.1-0.7,1.2-0.3,1.8-0.4c1.3-0.1,2.5,0.1,3.7-0.9c0.8-0.7,2.2-1,3.7-0.2
			c0.5,0.3,2.4,1.1,2.7-0.9c1-0.4,2.5,0.9,3-1c1.1,0.1,2.2-0.2,3.2,0.6c1.5,1.2,3.1-0.6,4.8-0.2l5.1-1.5c1.4,0.3,3-0.7,4.2,0.8
			c1.2-1,2.6-0.7,4-0.8c1.1-0.1,1.9,0.1,1.8,1.5c0,0.4,0.4,0.4,0.7,0.3c3.1-1.4,6.1-0.5,9.3,0c3.2,0.5,6.2,1.2,8.9,2.7
			c1.1,0.7,2.8-0.2,3.5,1.3c0.9-1.1,1.8,0.2,2.6,0.1c2.1-0.3,2.8,1.5,3.9,2.6c0.5,0.5-0.4,2,0.4,2.2c1.2,0.4,0.2-1.4,1-1.6
			c0.2,0,0.4,0.3,0.7,0.4c1.7,0.5,3.4,0.8,4.5,2.4c2.3-0.6,3.1,1.4,4.5,2.5c0.6,0.5,1,1.3,1.9,1.5c1.5,0.5,3,0.9,4.3,1.7
			c1.2,0.7,1.1,2.6,2.5,3.5c1.2,0.8,2.1,2,3.3,2.9c2,1.5,4.3,3,5,5.5c0.4,1.4,0.9,1.5,1.9,1.4c0.5,0,1,0.1,1.2,0.6
			c0.3,0.9-0.7,2.4,1.4,2.5c1.1,0,0.1,2.3,2.1,2c1.4-0.2-0.6,2.4,1.4,2.5c1.1,0.1,1.3,0.2,1.1,2.3c-0.3,2.3,1.8,4.2,1.1,6.6
			c1.3,0.4,0.4,2.7,2.4,2.5c0.5,0,0.9,0.7,0.6,1.1c-1.6,1.7,0.1,2.4,1,3.3c0.3,0.4,0.7,0.7,1.1,1.1c-0.4,0.9-2.7,0.2-1.9,2
			c1.3,3.2,2.7,6.3,3,9.8c0.1,1,0.8,2.1,1.6,2.8c1.2,1,1.5,2.1,1.3,3.5c-0.2,1.2,0.4,2.5-0.7,3.7c-1.3,1.4,2.1,2.6,0.7,3.9
			c-1.5,1.4,0.2,2.2,0.1,3.2c-0.1,1.6-1.3,2.8-1.1,4.6c0.2,1.5,0.1,3-0.7,4.7c-0.9,1.8-0.2,4.3-1,6.5c-0.4,1.1-1,2.3-1.4,3.4
			c-0.9,2.2-1.8,4.3-1.8,6.8c0,1.2,0.6,2.6-1.6,2.9c-0.9,0.1-0.4,1.8-0.4,2.7c0.3,3.2,0.1,4.1-1.9,6.4c-0.7,0.8-1.4,1.4-1.1,2.5
			c0.3,1.6-1.6,0.7-2,1.6c1,1,1.9,2.1,2.9,3.1c-0.7,0.7-1.3,1.3-2,2c2.6,1.3,3.9,3.7,5.1,6.1c0.5,1.1-0.2,2.3-1.5,2.2
			c-1.8,0-3.8,0.4-4.4,1.9c-0.8,2,1.2,3.2,2.7,4c0.6,0.3,1.2,0.3,1.1,1.2c-0.1,1.3-1.2,0.8-1.9,0.9c-1.7,0.2-0.5,0.7-0.3,1.4
			c0.3,1.2-1.7,0.1-1.8,1.5c-0.1,0.9,1.3,1,0.8,2c-1.6,3.1-0.2,6.5-0.7,9.7c-0.2,1.2,1.2,1.5,1,2.6c-0.2,1.1-1.8,1.5-1.7,2.2
			c0.1,2.8-1.5,5.3-1.3,8c0.1,1.4,0.1,2.7-1.3,3.5c-1.1,0.7-0.9,1.8-0.6,2.7c0.5,2.1-1.6,3.8-0.9,5.6c0.7,1.8-3.7,0.1-1.3,2.3
			c-2.7,2.7-1.5,7.7-5.3,9.6c-1.3,0.7,2,2.1-0.6,2.2c-1.6,0.1-0.6,1.5-0.9,2.4c-0.1,0.3,0,0.7,0,1c-0.1,1.1-2.5,0.9-1.3,2.9
			c0.5,0.8-1.3,1.2-2.1,1.8C248.6,212.4,248.4,214.8,247.8,218.5c0.1,1.1,0.2,1,0.2,0.8c0-0.8,0-1.6,0-2.4c-0.2,0-0.4-0.1-0.5,0
			c-0.9,0.7-0.5,1.7-0.4,2.6C247.1,219.7,247.3,219.8,247.8,218.5z M195,314c1,0,2,0,3,0c0,0.7,0.3,1,1,1c0,1.7,0,3.3-3,6.8
			c1.2,0,2.5,1.2,3-0.8c0-0.1,0.1-0.4,0-0.5c-1.1-1.2-1.4,1.3-2.4,0.5c-0.2,0.2-0.3,0.4,2.4-1c1.4-1.6,1.4-3.4,0-5c0-0.7-0.3-1-1-1
			c-1-1.4-2-1.4-3,0.4C195,314.3,195,314.1,195,314c-0.3,0.1-0.5,0.1-0.8,0.3c-0.3,0.2-0.2,0.5,0.2,0.6
			C194.6,314.9,194.8,314.6,195,314z M121.6,134.1c0.3-0.4,0.4-0.6,0.4-0.7c0-0.8,0-1.6,0-2.4c0,0-0.3-0.1-0.4,0
			c-0.9,0.7-0.5,1.7-0.4,2.6c0,0.1,0.2,0.2,1.6-4.5c-0.6,0.2-0.8,0.5-0.7,1c0,0.3-0.1,0.9,0,0.9c0.5,0.2,0.9-0.2,1-0.7
			C123,129.9,122.8,129.5,121.6,134.1z M143.1,219c-0.2-0.3-0.3-0.8-0.6-1c-0.4-0.3-0.5,0-0.5,0.4c0.1,0.5-0.2,1.2,0.6,1.4
			c0.1,0,0.3-0.5-0.6-0.9c0-2.8,0-4.6,0-6.3c0-0.5-0.5-0.7-1-0.7c-0.6,0-0.8,0.3-0.9,0.8C139.6,214.8,140.7,216.4,143.1,219z
			 M177.6,274c0.1,0,0.3,0,0.4,0c-0.1-0.3-0.1-0.5-0.3-0.8c-0.2-0.3-0.5-0.2-0.6,0.2c0,0.1,0.3,0.4,35.2,10.4
			c-1.2-1.3-2.5-0.7-3.5-0.8c-2-0.1-4.1,0.3-6-0.1c-3.9-0.9-7.6-3-11.8-2.9c-0.3,0-0.7-0.1-0.8-0.3c-2.9-3.1-7.6-2.8-10.7-5.6
			c-0.3-0.2-1,0-1.5,0c0.1,0.6-0.3,1.3,0.3,1.9c1.6,1.6,3.2,3.1,3.7,5.5c0.3,1.3,1.8,2.1,2.4,3.5c0.6,1.4,1.9,2.6,4,2.3
			c1.1-0.2,4.8,2.8,5.5,3.9c1,1.6,1.9,3.2,2.6,4.9c1.8,4.6,2.8,4.7,6.2,0.8c0.2-0.2,0.5-0.5,0.7-0.7
			C207.3,292.5,208.6,287.3,177.6,274z M236.6,187.9c2.2-1.3,2-4,1.3-5.3c-1.4-2.3-0.4-4.5-0.8-6.7c-0.2-1,0.9-1.2,1.3-0.9
			c1.6,1.5,2.7,0.1,2.6-0.9c-0.4-2.4,1.1-4.3,1.2-6.6c0-1.4,1-2.2,2.1-1.5c1.7,1.1,3.1,1.3,4.7,0c0.1-0.1,0.7,0.1,0.9,0.2
			c1.9,1.8,1.1-0.6,1.4-1c0.6-1,1.6,2,1.9-0.2c0.1-0.5-0.1-1,0-1.5c0.1-0.5,0.7-0.7,1.2-0.6c0.5,0.1,0.8,0.4,0.8,1
			c0,0.6-0.5,0.8-0.7,1.2c-0.5,0.8,0.2,0.7,0.6,0.8c0.3,0,0.8-0.1,0.9-0.2c0.3-1.6,0.7-3.2-0.2-4.7c-0.6-0.9-0.2-1,0.5-1.1
			c1.5-0.2,1.9-2.3,3.6-2.2c0.3,0,0.9-0.6,1-1c1.7-4,0.5-8.5,2.3-12.6c0.1-0.3-0.2-0.9-0.5-1.2c-0.6-0.6-0.7-1.4-0.4-1.8
			c1.7-2.7,0.5-5.9,1.9-8.7c0.7-1.5,1.8-3.1,0.2-5.2c-1.2-1.6,0.7-4,0.8-6c0.1-2.2-1.6-4.3-0.9-6.6c0.3-1,1.8-1.6,0.3-2.8
			c-1.6-1.4,1.4-2,0.7-3.4c-0.8-1.8-1.3-3.8-2.1-5.6c-1.7-3.8-4.2-7.4-4-11.8c0-0.3-0.3-0.8-0.4-0.8c-1.9,0.2-1.6-1.2-1.6-2.3
			c0.2-2.1-0.5-3.8-1.9-5.2c-1.5-1.6-1.8-3.6-2.1-5.6c-0.1-0.8,0.3-2-0.1-2.4c-1.2-1.2-2.2-2.4-2.1-4.2c-1.4-0.2-1.8-1.4-2.5-2.4
			c-0.7-0.9-2-1.6-3.1-1.9c-1.1-0.3-0.9-0.9-1.3-1.6c-1.5-2.4-3.4-4.7-6.7-4.5l-5.8-2l-5.1-2c-1-0.4-2-0.8-3-1.2
			c-0.4-0.1-0.4-1-1.1-0.5c-2.1,1.5-3.8,1.3-4.8-1.3c-2.9-0.6-6-0.7-8.3-3c-3.4,0.7-7.3-1.6-10.3,1.6c-0.6,0.6-1.2,0.4-1.9,0.3
			c-2.2-0.1-4.7,0.8-6.3-1.7c-0.2-0.3-0.9-0.2-1.4-0.3c-2-0.3-4.2,0.7-6.1-1c-0.5-0.4-1.1,0.4-1.6,0.8c-0.3,0.3-4,0.9-4.5,0.7
			c-0.4-0.2-0.5-0.7-1.1-0.1c-1.4,1.3-3.5,1.1-5.1,2.2c-4,2.6-8.6,2.7-13.1,3.3c-1.5,0.2-2.8,0.3-3.9,1.6c-1.3,1.5-1.4,1.4-4.5,1.5
			c-0.5,0-1.3-0.1-1.3,0.4c0.3,2-1.7,1.9-2.5,2.3c-3.2,1.6-5.6,4-6.1,7.4c-0.4,2.5-1.6,4.4-2.6,6.4c-0.4,0.7-0.7,1.3-0.9,2.1
			c-0.9,3.9-1.4,8-2.9,11.8c-0.3,0.8-0.5,1.8-1.1,2c-1.9,0.4-1.4,2.2-2.2,3c-1.1,1.2,0,3.1-1.6,3.9c-1.2,0.6-1.2,1.8-1.2,3
			c0,4.2-0.1,8.3,0.1,12.5c0.2,4.2-0.9,8.5,1,12.6c-0.7,3,0.7,5.8,1.2,8.5c0.9,4.4,1.4,8.8,1.6,13.2c0.2,2.8,0.6,5.6,1.4,8
			c1.1,3.4,2.8,7.3,7.3,7.7c1.2,0.1,2.2,0.8,2.3,1.5c0.2,1.7,1.8,2.3,2.6,3.5c0.8,1.2,1,3.5,3.2,1.2c0.5-0.5,2.3-0.2,3.6,0.5
			c1.8,1.1,3.5,2.5,5.8,3c0.8,0.2,1.2,1.2,0.1,1.7c-1.9,0.8-2.6,2.1-2.1,4c0.2,0.9-0.6,2,0.6,2.6c0.6-0.7,1.4-1.2,1.5-2.4
			c0-0.6,1.3-1.1,1.6-1.8c0.8-1.5,2,0.8,2.1-0.1c0.2-1.7,1.2-1.6,2.3-1.6c1.3,0,2.7,0.1,4,0c2.6-0.2,2.8-0.3,4.9,1.6
			c0.6,0.6,0.9,0.1,0.9-0.3c0.2-2.4,1-0.8,1.6-0.3c0.8,0.7,0.5,1.3-0.1,2.1c-0.6,0.7-1.3,0.8-2.1,1.1c-0.2,0.1-0.3,0.5-0.3,0.8
			c-0.1,0.6,0.3,0.9,0.8,1c1,0,2.2,0.4,3,0c3.1-1.6,6.4-0.6,9.6-1c2.7-0.3,5.1,0.6,7.4,1.5c1,0.4,1.9,0.7,2.7,0.5
			c5.3-1.3,7.6-1,13.2,0c2.8,0.5,5.6,1.8,8.6,1.1c0.9-0.2,2.2,0.6,2.6-0.6c0.7-1.8-1.6-1.1-2.1-2c-0.4-0.7-1.2-0.4-1.8-0.3
			c-0.8,0-1.2-1.1-1.5-0.9c-0.7,0.3-1.3,1.4-2.1,0.7c-1.6-1.5-2.9-3.3-2.3-5.8c1.3,0.3,1.4,2.4,2.7,1.5c1.1-0.7,1.8-0.6,2.4,0.3
			c1,1.4,1.6,0.9,2.5-0.1c1.1-1.3,2.9-0.9,4.3-1.6c0.8-0.4,1.8,1.2,2.5,2.1c1.2,1.4,2.5,1.9,4.3,1.9c1.7,0,2.2,2.2,3.7,2.8
			c0.1,0,0.4-0.5,0.7-0.6c0.8-0.3,1.6-0.4,1.7,0.9c0,0.5,0,1,0,1.5C234.8,186.2,234.8,186.2,236.6,187.9z M224,198
			c-0.3-0.6,0.5-1.7-0.8-1.9c-0.7-0.1-1.6-0.3-2.3,0.5c-0.8,0.9-1.8,1.6-2.4,2.5c-1,1.4-2.6,2.5-3.9,2.6c-2.6,0.4-3.9,2.2-5.5,3.7
			c-0.3,0.3-5.1,3.7-5.4,3.6c-4.8-0.5-9.8,1-14.6-0.9c-1.2-0.5-2.8-0.2-4.3,0.4c-2.6,1.1-5.4,1.3-7.4-1.5c-1-1.4-2.3-0.9-3.6-1
			c-0.6,0-0.9,0.3-0.9,0.9c-0.1,0.6,0.2,1,0.7,1.1c2.1,0.6,3.3,1.5,1.4,3.7c-0.4,0.5,0.2,1.3,0.7,1.6c1.9,1.1,3.8,2.7,6.1,1.3
			c1-0.6,2-0.2,2.8-0.6c2-1.1,3.4,1.9,5.4,0.6c1.8-1.2,3.8-0.3,5.8-0.5c1-0.1,2.3-0.3,2.8,0.2c1.6,1.6,2.3,0.3,3.2-0.6
			c1.2-1.3,0.9-0.1,1.2,0.6c0.4,1.1,0.8,0.6,1-0.2c0.1-0.3,0.1-0.8,0.3-0.8c0.7-0.3,0.7,0.3,0.7,0.7c0,0.5,0,1,0,1.5
			c0,0.6-0.1,1.4,0.8,1.5c0.7,0.1,1.3-0.1,1.2-1c0-0.4,0-1.1,0.7-0.7c0.8,0.5,1.1,1.7,2.3,1.7c1.6,0,0.6-2.2,1.9-2.4
			c1.3-0.2,2.5-0.3,3.8-0.3c0.4,0,1,1.3,1.2,0c0.2-1.2,2.2-2.2,0.2-3.8c-0.7-0.6-0.4-2.2,0.8-3c2.8-1.9,3.8-5.1,5.7-7.6
			C224.1,199.3,223.9,198.7,224,198z M217.8,192.6c-0.6-1.9-1.5-3.4-3.7-2.6c-1.2,0.4-2.1-1.3-2.9-0.6c-1.3,1-2.5,0.5-3.8,0.5
			c-3.5,0.1-7,0.2-10.5-0.1c-1.2-0.1-2.1,1.9-3.3,0.3c-3.2,0-6.3-0.7-9.5-1.2c-2-0.3-4.1,0.4-6.1-0.9c-0.7-0.4-2.1-0.4-3.2,0.4
			c-1.1,0.8-2.4,1.9-4,0.5c-0.1-0.1-0.7,0.2-0.8,0.4c-0.1,0.4-0.1,1.2,0.1,1.3c2.5,0.9,3.8,3.8,6.2,4.1c2.2,0.3,3.8,1.5,5.6,2.3
			c2.3,1,4.5,2.5,7.2,1.9c1.4-0.3,2.1,1.6,3,1c2-1.5,4.1-0.8,6.1-0.9c2.3-0.1,5,0.7,6.9-0.2c2.1-1,5.2,0.1,6.3-2.8
			C214.8,196.8,216.2,194.3,217.8,192.6z M173,205c0-1.1,0-2.1,0-3c0-0.3-0.1-0.6-0.3-0.8c-2.2-2.2-3.9-4.9-6.6-6.6
			c-0.8-0.5-1.4-0.8-2.1,0c-0.6,0.7-1.2,1.1-0.7,2.4c1,2.8,4.3,3.9,5,6.9C169.7,204.2,171.2,204.5,173,205z M132.6,84.9
			c0.1-0.1,0.2-0.2,0.4-0.4c-0.2-0.1-0.4-0.3-0.7-0.3c-0.1,0-0.2,0.2-0.3,0.3C132.2,84.6,132.4,84.7,132.6,84.9z"/>
		<path d="M277,142.5c-1.1-1.2-2-1.6-2-2.8c-0.1-2.6-0.7-5-2.6-6.9c-0.4-0.4-0.5-1.1-0.7-1.7c-1.4-3-0.5-5.5,2.5-6.8
			c2.2-1,2.8-0.5,2.9,1.9c0,4.3,0,8.6,0,12.9C277,140,277,140.8,277,142.5z"/>
		<path d="M270.4,156c-1.2-1.7,0.5-2.3,0.7-3.3c0.2-1.1,1.8,0.5,2.6-0.5c0,0,0.3,1.2,0.3,1.2C272.5,153.8,271.5,155,270.4,156z"/>
		<path d="M177.6,4c-0.2-0.2-0.5-0.4-0.4-0.6c0.1-0.4,0.4-0.5,0.6-0.2c0.1,0.2,0.2,0.5,0.3,0.8C177.9,4,177.7,4,177.6,4z"/>
		<path d="M119.6,55c-0.2-0.2-0.5-0.4-0.4-0.6c0.1-0.4,0.4-0.5,0.6-0.2c0.1,0.2,0.2,0.5,0.3,0.8C119.9,55,119.7,55,119.6,55z"/>
		<path d="M180.6,3c-0.2-0.2-0.5-0.4-0.4-0.6c0.1-0.4,0.4-0.5,0.6-0.2c0.1,0.2,0.2,0.5,0.3,0.8C180.9,3,180.7,3,180.6,3z"/>
		<path class="st0" d="M238.3,124.7c-3.5,61.5-3.5,61.5-3.3,58.9c0-0.5,0-1,0-1.5c0-1.2-0.8-1.2-1.7-0.9c-0.3,0.1-0.6,0.7-0.7,0.6
			c-1.5-0.6-2-2.7-3.7-2.8c-1.8,0-3.1-0.5-4.3-1.9c-0.7-0.9-1.7-2.5-2.5-2.1c-1.4,0.7-3.2,0.3-4.3,1.6c-0.9,1-1.5,1.5-2.5,0.1
			c-0.6-0.9-1.3-1-2.4-0.3c-1.3,0.8-1.4-1.2-2.7-1.5c-0.6,2.5,0.6,4.3,2.3,5.8c0.7,0.7,1.4-0.4,2.1-0.7c0.4-0.2,0.7,0.9,1.5,0.9
			c0.6,0,1.4-0.4,1.8,0.3c0.5,0.9,2.8,0.2,2.1,2c-0.4,1.2-1.7,0.4-2.6,0.6c-3,0.7-5.8-0.6-8.6-1.1c-5.6-1-7.9-1.2-13.2,0
			c-0.9,0.2-1.8-0.1-2.7-0.5c-2.3-0.9-4.7-1.8-7.4-1.5c-3.2,0.4-6.5-0.7-9.6,1c-0.8,0.4-2,0.1-3,0c-0.5,0-0.9-0.3-0.8-1
			c0.1-0.3,0.2-0.8,0.3-0.8c0.8-0.2,1.5-0.4,2.1-1.1c0.6-0.7,0.9-1.4,0.1-2.1c-0.6-0.5-1.4-2.1-1.6,0.3c0,0.4-0.3,0.8-0.9,0.3
			c-2.1-1.9-2.3-1.9-4.9-1.6c-1.3,0.1-2.7,0-4,0c-1.2,0-2.1-0.1-2.3,1.6c-0.1,0.9-1.3-1.4-2.1,0.1c-0.4,0.7-1.6,1.2-1.6,1.8
			c-0.1,1.2-0.9,1.7-1.5,2.4c-1.2-0.6-0.4-1.7-0.6-2.6c-0.4-1.9,0.2-3.3,2.1-4c1.1-0.5,0.7-1.5-0.1-1.7c-2.2-0.5-3.9-1.9-5.8-3
			c-1.3-0.8-3.1-1.1-3.6-0.5c-2.3,2.3-2.5,0.1-3.2-1.2c-0.8-1.2-2.3-1.7-2.6-3.5c-0.1-0.7-1.1-1.4-2.3-1.5c-4.5-0.4-6.3-4.2-7.3-7.7
			c-0.8-2.4-1.2-5.2-1.4-8c-0.3-4.4-0.8-8.8-1.6-13.2c-0.5-2.8-1.9-5.6-1.2-8.5c-1.8-4.1-0.8-8.4-1-12.6c-0.2-4.2,0-8.3-0.1-12.5
			c0-1.2,0-2.4,1.2-3c1.6-0.8,0.5-2.7,1.6-3.9c0.7-0.8,0.3-2.6,2.2-3c0.7-0.1,0.8-1.2,1.1-2c1.5-3.8,2-7.8,2.9-11.8
			c0.2-0.8,0.5-1.4,0.9-2.1c1-2.1,2.3-4,2.6-6.4c0.6-3.5,2.9-5.8,6.1-7.4c0.8-0.4,2.8-0.3,2.5-2.3c-0.1-0.5,0.8-0.4,1.3-0.4
			c3.2-0.1,3.3,0,4.5-1.5c1.1-1.3,2.4-1.3,3.9-1.6c4.5-0.7,9.1-0.7,13.1-3.3c1.6-1,3.7-0.8,5.1-2.2c0.6-0.5,0.7,0,1.1,0.1
			c0.5,0.2,4.2-0.4,4.5-0.7c0.5-0.4,1.1-1.3,1.6-0.8c1.9,1.6,4.1,0.7,6.1,1c0.5,0.1,1.2,0,1.4,0.3c1.6,2.5,4.1,1.6,6.3,1.7
			c0.6,0,1.3,0.3,1.9-0.3c3-3.3,6.9-1,10.3-1.6c2.3,2.3,5.3,2.4,8.3,3c1,2.6,2.7,2.7,4.8,1.3c0.7-0.5,0.7,0.4,1.1,0.5
			c1,0.4,2,0.8,3,1.2l5.1,2l5.8,2c3.3-0.1,5.2,2.1,6.7,4.5c0.4,0.6,0.2,1.3,1.3,1.6c1.2,0.3,2.4,1,3.1,1.9c0.7,1,1.1,2.1,2.5,2.4
			c-0.1,1.8,0.9,3,2.1,4.2c0.4,0.4,0,1.6,0.1,2.4c0.3,2,0.6,4.1,2.1,5.6c1.4,1.5,2.1,3.2,1.9,5.2c-0.1,1.1-0.4,2.5,1.6,2.3
			c0.1,0,0.4,0.5,0.4,0.8c-0.2,4.5,2.3,8,4,11.8c0.8,1.8,1.2,3.8,2.1,5.6c0.7,1.5-2.3,2-0.7,3.4c1.4,1.2,0,1.9-0.3,2.8
			c-0.7,2.3,1,4.4,0.9,6.6c-0.1,2-2,4.4-0.8,6c1.6,2.2,0.5,3.8-0.2,5.2c-1.4,2.8-0.2,6.1-1.9,8.7c-0.3,0.4-0.2,1.2,0.4,1.8
			c0.3,0.3,0.6,0.9,0.5,1.2c-1.8,4-0.6,8.5-2.3,12.6c-0.2,0.4-0.7,1-1,1c-1.7-0.1-2.1,2-3.6,2.2c-0.8,0.1-1.2,0.1-0.5,1.1
			c1,1.5,0.6,3.1,0.2,4.7c0,0.1-0.6,0.3-0.9,0.2c-0.4,0-1.1,0-0.6-0.8c0.3-0.4,0.8-0.6,0.7-1.2c0-0.6-0.3-0.9-0.8-1
			c-0.5-0.1-1,0.1-1.2,0.6c-0.1,0.5,0,1,0,1.5c-0.3,2.2-1.2-0.8-1.9,0.2c-0.2,0.4,0.5,2.7-1.4,1c-0.2-0.2-0.7-0.4-0.9-0.2
			c-1.6,1.3-3,1.1-4.7,0c-1.1-0.7-2.1,0.1-2.1,1.5c0,2.3-1.5,4.2-1.2,6.6c0.1,0.9-1,2.3-2.6,0.9c-0.4-0.3-1.4-0.1-1.3,0.9
			c0.4,2.2-0.6,4.4,0.8,6.7C238.6,183.9,238.8,186.6,238.3,124.7C240,61.3,240,61.1,240,61c-0.3,0.1-0.5,0.1-0.8,0.3
			c-0.3,0.2-0.2,0.5,0.2,0.6C239.6,61.9,239.8,61.6,238.3,124.7z M195.9,178.6c-0.2-0.2-0.3-0.5-0.5-0.6c-0.4-0.2-0.6,0-0.4,0.4
			c0.1,0.2,0.4,0.3,0.6,0.5c0,0,0.2-0.2-23.3-20.9c-0.6,2.2-0.2,3.7,1.3,5.2c2,1.9,4.2,3.4,6.5,4.8c0.4,0.3,1,0.3,0.9,0.9
			c-0.2,1.4,0.2,2.8-0.5,4.3c-0.6,1.4-1.8,2.3-2.5,3.5c-0.2,0.3-0.2,1.2,0.4,1.3c0.9,0.2,1.9,0.4,2.7-0.5c0.8-0.8,0.6-1.1,0-1.8
			c-0.8-1.1,0.5-1.7,1.2-2.3c0.2-0.2,1-0.2,1.3,0c0.8,0.6-0.3,0.7-0.4,1c-0.3,1-0.3,1,1.2,0.8c1-0.1,1.6,0.1,1.5,1.3
			c0,0.3,0.7,1.1,0.8,0.3c0.3-2.2,1.3-1.4,1.8-0.4c0.8,1.9,1.7,2.6,3.5,1.2c0.6-0.5,1.1-0.6,1.7-0.1c0.4,0.3,0.7,1,1.2,0.7
			c0.2-0.2,0.1-0.9,0-1.4c-0.1-0.5-1.5-0.6-0.5-1.4c0.5-0.4,1.1,0,1.7,0.5c1,0.8,1,4.1,3.5,1.5c0.1,0.1,0.3,0.2,0.3,0.4
			c0.1,0.6-0.1,1.4,0.8,1.5c1.2,0.2,1.1-0.6,1.4-1.5c0.2-0.6,0.9-1.4,1.8-1.5c1.7-0.1,0.6-0.7,0.3-1.4c-0.3-0.8-0.7-1.9,0.3-2.6
			c0.2,0.2,0.5,0.5,0.7,0.7c0.5,0.4,1.1,1.1,1.4,1c0.5-0.2,1.2-0.8,1.3-1.4c0.2-1.6,0.2-3.2-1.4-4.4c-0.8-0.6-1.7-0.8-2.5-1.4
			c-0.4-0.3-1.1-0.9-1-1c0.3-0.5,1-1.5,1.3-1.4c1.6,0.6,3.6-1.9,4.9,1.3c0.6,1.6,4.7,0.5,5.7-1.3c0.7-1.3,1.2-2.6,1.9-4.2
			c-3.1,0-5.9,0-8.7,0c-0.7,0-5.2,1.4-5.7,2c-0.7,0.9-1.5,1.1-2.6,1c-4.2-0.1-8.4,0.6-12.3-1.8c-0.5-0.3-1.3-0.1-1.9-0.3
			c-3.2-0.7-6.5-1.2-9.5-2.4C175,158.1,173.8,158.2,195.9,178.6z M146.1,132.7c-0.8,1.4-1.4,2.7,1.1,2.3c0.4-0.1,1,0.8,1.5,1.1
			c1.7,1,3.6,1.9,5.4,2.7c1.7,0.8,4.2-0.7,5.7,0.6c2.3,1.9,4-0.4,5.8-0.7c2.6-0.3,4.9-2.2,7.4-3.5c-0.1-2.2,2.1-1.5,2.4-1.2
			c1.9,1.9,2.9,0.7,3.6-1c0.3-0.7,0.5-0.9,1.2-1.1c2.3-0.5,3.5-3.3,6.2-3c0.4,0,0.6-0.7,0.6-1.2c-0.4-2.6,0.1-4.9,0.9-7.3
			c0.3-0.8,0.5-1.5,1.1-2c-1.6-1-0.5-2.8-1.1-4c-0.3-0.6-0.8-1.5-1.8-1.4c-2.2,0.2-2.6-2.9-4.9-2.4c-1.1-3.1-4.2-3.6-6.6-4.3
			c-2.8-0.8-5.3-2.8-8.6-2.4c-2.2,0.2-4.2,1.6-6.6,1.2c-2.3-0.3-4.6,0-7-0.1c-0.7,0-1.2,0.5-1.7,0.7c-1.6,0.6-3.4,2.6-4.8-0.2
			c-0.2-0.4-0.4-0.4-0.7-0.2c-1.4,1.2-3.5,1.4-4.8,2.8c-0.7,0.7-0.8,1.5,0.3,1.9c1.8,0.6,2.6,1,1,3.1c-1.6,2.1-2.9,4.4-4.5,6.6
			c-0.7,1-2,1.8-2.1,3c-0.1,1.7,1.7,2.3,2.6,3.4c0.3,0.4,0.9,0.7,1,1.1c0.6,2.7,2.5,1.9,4.1,1.6c1.6-0.4,3.2-1.2,4.8-1.7
			c0.6-0.2,1.4-0.2,1.5,0.7c0,0.8,0.3,2.2-0.5,2.1C146,129.7,145.7,130.9,146.1,132.7z M229.9,132.3c3.7,0.4,6.9-1,9.8-2.7
			c1.1-0.6,2,1.5,2.5-0.3c1.6,2,3.2,0,4.6-0.3c2.5-0.5,5-4.1,4-5.8c-1.4-2.4-1.9-5.4-4.5-7.1c-1.1-0.8-4.3-4.3-4.4-5.1
			c-0.1-1.7-1.1-2.2-2.5-3c-1.5-0.9-2.7-0.8-4.1-0.8c-0.5,0-0.5,0.8-1.4,0.6c-3.5-0.9-7.1-2-10.8-1.7c-0.8,0.1-1.7,0.3-2.3-0.5
			l-8.8,0.9c-0.4,0.4-1,0.7-1,1.1c0.2,2.1-2.5,1.4-2.8,2.8c-0.4,1.9-2,2.3-3.3,2.8c-1,0.4-1.5,1.2-2.3,1.7c-1,0.7-0.2,1.1,0,1.8
			c0.3,1.3,0.2,2.6,1.5,3.4c0.3,0.2,0.9,0.4,0.3,1.1c-1.4,1.7-0.4,3.8-0.6,5.7c-0.3,2.3,1.2,3.6,3.1,4.3c0.9,0.3,1.7-0.1,2,1.4
			c0.3,1.2,1.6,2.7,3.3,0.8c0.2-0.2,1-0.1,1.3,0.1c1.9,1.8,4.1,2.9,6.2,4.3c0.3,0.2,0,1.6,0.8,1.4c2.8-0.6,5.3,1.3,8.1,1.2
			c2.2-0.1,4.1-1.2,6.1-1c2.2,0.2,3.2-0.6,4-2.4c0.2-0.5,1.1-0.6,0.9-1.2c-1-2.3-2.8-2.6-5-2.5C233.2,133.1,231.5,133.3,229.9,132.3
			z M248.1,112.8c-0.8-1-1.7-2.2-3.1-2.8c-0.6-0.2-1,0.2-1,0.7c0,1.2,2.5,3.2,3.6,3.1C247.8,113.8,247.9,113.3,248.1,112.8z
			 M207.6,175.1c-0.2,0.1-0.6,0.2-0.6,0.4c0,0.4-0.3,1,0.3,1.3c0.1,0.1,0.6-0.2,0.6-0.4C208,176,208.2,175.5,207.6,175.1z"/>
		<path class="st0" d="M224,198c-0.2,0.7,0.1,1.3-0.4,2c-1.9,2.5-2.9,5.8-5.7,7.6c-1.2,0.8-1.5,2.4-0.8,3c1.9,1.6,0,2.6-0.2,3.8
			c-0.2,1.3-0.8,0-1.2,0c-1.3,0-2.6,0.1-3.8,0.3c-1.3,0.2-0.3,2.4-1.9,2.4c-1.2,0-1.4-1.3-2.3-1.7c-0.7-0.4-0.7,0.2-0.7,0.7
			c0,0.9-0.5,1.1-1.2,1c-0.9-0.1-0.8-0.9-0.8-1.5c0-0.5,0-1,0-1.5c0-0.5,0-1-0.7-0.7c-0.2,0.1-0.2,0.5-0.3,0.8
			c-0.2,0.8-0.5,1.3-1,0.2c-0.3-0.7,0-1.9-1.2-0.6c-0.9,0.9-1.6,2.2-3.2,0.6c-0.5-0.5-1.9-0.3-2.8-0.2c-1.9,0.2-4-0.7-5.8,0.5
			c-2,1.4-3.4-1.6-5.4-0.6c-0.8,0.4-1.8,0-2.8,0.6c-2.3,1.4-4.2-0.1-6.1-1.3c-0.6-0.4-1.2-1.1-0.7-1.6c1.9-2.2,0.8-3.1-1.4-3.7
			c-0.5-0.1-0.7-0.6-0.7-1.1c0.1-0.6,0.3-0.9,0.9-0.9c1.3,0.1,2.6-0.4,3.6,1c2,2.8,4.8,2.5,7.4,1.5c1.5-0.6,3.1-0.8,4.3-0.4
			c4.8,1.9,9.8,0.4,14.6,0.9c0.3,0,5.1-3.4,5.4-3.6c1.6-1.5,2.9-3.3,5.5-3.7c1.3-0.2,2.9-1.3,3.9-2.6c0.7-0.9,1.7-1.6,2.4-2.5
			c0.7-0.8,1.5-0.6,2.3-0.5C224.5,196.2,223.8,197.4,224,198z"/>
		<path class="st0" d="M217.8,192.6c-1.6,1.7-3,4.2-6.2,3.4c-1.2,2.9-4.2,1.8-6.3,2.8c-1.9,0.9-4.6,0.1-6.9,0.2
			c-2,0.1-4.2-0.6-6.1,0.9c-0.9,0.7-1.7-1.3-3-1c-2.7,0.6-4.8-0.9-7.2-1.9c-1.8-0.8-3.4-2-5.6-2.3c-2.4-0.3-3.8-3.2-6.2-4.1
			c-0.2-0.1-0.2-0.9-0.1-1.3c0-0.2,0.7-0.4,0.8-0.4c1.5,1.4,2.9,0.3,4-0.5c1.1-0.8,2.6-0.8,3.2-0.4c2,1.3,4.1,0.6,6.1,0.9
			c3.1,0.5,6.3,1.2,9.5,1.2c1.2,1.6,2.1-0.4,3.3-0.3c3.5,0.3,7,0.2,10.5,0.1c1.2,0,2.5,0.5,3.8-0.5c0.8-0.7,1.7,1,2.9,0.6
			C216.3,189.2,217.2,190.8,217.8,192.6z"/>
		<path class="st0" d="M212.3,283.8c-3.7,3.5-5,8.7-8.8,12.2c-0.2,0.2-0.5,0.5-0.7,0.7c-3.4,3.9-4.4,3.9-6.2-0.8
			c-0.7-1.8-1.5-3.4-2.6-4.9c-0.7-1.1-4.5-4.1-5.5-3.9c-2.1,0.3-3.4-0.9-4-2.3c-0.6-1.4-2.1-2.2-2.4-3.5c-0.6-2.4-2.1-3.9-3.7-5.5
			c-0.6-0.6-0.2-1.3-0.3-1.9c0.5,0,1.2-0.2,1.5,0c3.1,2.8,7.8,2.5,10.7,5.6c0.2,0.2,0.6,0.4,0.8,0.3c4.2-0.1,7.8,2.1,11.8,2.9
			c1.9,0.4,4,0,6,0.1C209.8,283.1,211.1,282.5,212.3,283.8z"/>
		<path class="st0" d="M173,205c-1.8-0.5-3.3-0.8-4.7-1.2c-0.7-3-4-4-5-6.9c-0.5-1.3,0.1-1.7,0.7-2.4c0.7-0.7,1.3-0.5,2.1,0
			c2.7,1.8,4.3,4.5,6.6,6.6c0.2,0.2,0.3,0.5,0.3,0.8C173,203,173,203.9,173,205z"/>
		<path class="st0" d="M142,219c-1.3-2.6-2.4-4.2-2-6.2c0.1-0.5,0.3-0.8,0.9-0.8c0.6,0,1,0.2,1,0.7C142,214.4,142,216.2,142,219z"/>
		<path class="st0" d="M199,320c0-1.7,0-3.3,0-5C200.4,316.6,200.4,318.4,199,320z"/>
		<path class="st0" d="M196,321.8c0.3-0.3,0.4-0.6,0.6-0.8c1,0.8,1.3-1.7,2.4-0.5c0.1,0.1,0,0.3,0,0.5
			C198.5,322.9,197.2,321.8,196,321.8z"/>
		<path class="st0" d="M121.6,134.1c-0.2-0.2-0.4-0.4-0.5-0.5c0-0.9-0.5-1.9,0.4-2.6c0.1-0.1,0.4,0,0.4,0c0,0.8,0,1.6,0,2.4
			C122,133.5,121.8,133.6,121.6,134.1z"/>
		<path class="st0" d="M247.6,220.1c-0.2-0.2-0.4-0.4-0.5-0.5c0-0.9-0.5-1.9,0.4-2.6c0.1-0.1,0.3,0,0.5,0c0,0.8,0,1.6,0,2.4
			C248,219.5,247.8,219.6,247.6,220.1z"/>
		<path class="st0" d="M198,314c-1,0-2,0-3,0C196,312.6,197,312.6,198,314z"/>
		<path class="st0" d="M122.7,129c0.1,0.4,0.3,0.9,0.3,1.3c-0.1,0.5-0.4,0.8-1,0.7c-0.1,0,0-0.6,0-0.9
			C122,129.6,122.1,129.2,122.7,129z"/>
		<path class="st0" d="M143.1,219c-0.2,0.4-0.4,0.9-0.5,0.9c-0.8-0.2-0.5-0.9-0.6-1.4c-0.1-0.5,0.1-0.7,0.5-0.4
			C142.8,218.3,142.9,218.7,143.1,219z"/>
		<path class="st0" d="M132.6,84.9c-0.2-0.1-0.4-0.2-0.6-0.4c0.1-0.1,0.2-0.3,0.3-0.3c0.2,0.1,0.4,0.2,0.7,0.3
			C132.9,84.6,132.8,84.7,132.6,84.9z"/>
		<path class="st0" d="M352,270.4c-0.2,0.2-0.4,0.5-0.6,0.4c-0.4-0.1-0.5-0.4-0.2-0.6c0.2-0.1,0.5-0.2,0.8-0.3
			C352,270.1,352,270.3,352,270.4z"/>
		<path class="st0" d="M177.6,274c-0.2-0.2-0.5-0.4-0.4-0.6c0.1-0.4,0.4-0.5,0.6-0.2c0.1,0.2,0.2,0.5,0.3,0.8
			C177.9,274,177.7,274,177.6,274z"/>
		<path class="st0" d="M195,314.4c-0.2,0.2-0.4,0.5-0.6,0.4c-0.4-0.1-0.5-0.4-0.2-0.6c0.2-0.1,0.5-0.2,0.8-0.3
			C195,314.1,195,314.3,195,314.4z"/>
		<path class="st0" d="M198,314c0.7,0,1,0.3,1,1C198.3,315,198,314.7,198,314z"/>
		<path d="M146.1,132.7c-0.4-1.8,0-3,2.4-2.8c0.8,0.1,0.6-1.4,0.5-2.1c-0.1-0.9-0.9-0.9-1.5-0.7c-1.6,0.5-3.1,1.3-4.8,1.7
			c-1.6,0.4-3.5,1.2-4.1-1.6c-0.1-0.4-0.7-0.7-1-1.1c-0.9-1.1-2.7-1.7-2.6-3.4c0.1-1.2,1.4-2.1,2.1-3c1.6-2.2,2.9-4.5,4.5-6.6
			c1.6-2.1,0.9-2.4-1-3.1c-1-0.4-0.9-1.1-0.3-1.9c1.3-1.5,3.4-1.6,4.8-2.8c0.3-0.2,0.5-0.2,0.7,0.2c1.4,2.8,3.2,0.8,4.8,0.2
			c0.6-0.2,1-0.7,1.7-0.7c2.3,0.1,4.7-0.2,7,0.1c2.4,0.4,4.3-1,6.6-1.2c3.3-0.3,5.8,1.6,8.6,2.4c2.4,0.7,5.5,1.2,6.6,4.3
			c2.3-0.5,2.8,2.6,4.9,2.4c1-0.1,1.6,0.8,1.8,1.4c0.6,1.2-0.5,3,1.1,4c-0.6,0.6-0.8,1.2-1.1,2c-0.8,2.4-1.3,4.6-0.9,7.3
			c0.1,0.5-0.1,1.2-0.6,1.2c-2.8-0.3-3.9,2.5-6.2,3c-0.7,0.1-1,0.4-1.2,1.1c-0.7,1.7-1.6,2.9-3.6,1c-0.3-0.3-2.5-1-2.4,1.2
			c-2.5,1.2-4.8,3.1-7.4,3.5c-1.8,0.2-3.5,2.5-5.8,0.7c-1.6-1.2-4,0.2-5.7-0.6c-1.8-0.8-3.6-1.7-5.4-2.7c-0.5-0.3-1.1-1.2-1.5-1.1
			C144.6,135.4,145.3,134.2,146.1,132.7z M167.5,129.9c1.3,0.1,1.7,0.2,2.2,0.1c0.8-0.2,2,0.6,2.3-0.9c0-0.3-0.1-0.7-0.2-0.8
			c-0.9-0.4-1.9-0.6-2.8,0.2c-0.3,0.3-0.7,0.7-0.8-0.5c0.8-0.5,1.7-1,2.7-1.6c-0.7-0.6-1.1-1.6-2.4-1.5c-0.9,0.1-1.7,0-1.6,1.3
			C167.1,127,166.7,128,167.5,129.9z M158.9,118.4c-2.3,0.8-5,0-6.9,2.5c1.6,0,3.5,0.6,4.4-0.1c1.4-1,3.3-1.3,4-0.6
			c1.4,1.3,3.1-1.7,4,0.7c0.1,0.3,1.3,0.2,1.5-0.6c0.1-0.6,0-1.3-0.9-1.3c-0.8,0-1.7,0.1-2.5,0c-0.6-0.1-0.5-0.7,0-0.9
			c0.4-0.2,1.3,0.1,1.3-0.4c0-0.9-1-0.4-1.4-0.7c-0.7-0.5-0.1-0.8,0.3-0.9c0.8-0.2,1.7,0.3,2.3-0.5c-1.1-0.7-1.6-2.5-3-2.4
			c-3.4,0.3-7.4-1.6-10,2.4c-0.8,1.2-2.3-0.1-3.1,1C152.1,117.9,155.4,118.3,158.9,118.4z M156.9,127.8c-0.7-1.2-1.2-2.4-2-3.3
			c-0.9-1.1-1.7-0.2-2.4,0.5c-1.1,1.1,0.4,1.6,0.7,1.7C154.4,126.8,155.2,128.4,156.9,127.8z M165.8,129.8c0-0.3,0-0.6,0-0.8
			c-1.6,0-3.2-0.1-4.8,0c-1.6,0.1-3.3-0.3-4.8,0.8C159.4,129.8,162.6,129.8,165.8,129.8z M177,129.5c-0.2-0.2-0.4-0.4-0.7-0.5
			c-0.4-0.2-0.9-0.2-1.2-0.5c-0.8-0.6-1.1-0.4-1,0.5c0.1,1.6,1.4,0.9,2.2,1C176.4,130,176.7,129.7,177,129.5z M180,127
			c0-0.9-0.6-1-1.2-0.9c-0.3,0-0.5,0.3-0.8,0.5c0.6,0.4,0.8,1.3,1.7,1.3C179.8,127.8,179.9,127.3,180,127z"/>
		<path d="M229.9,132.3c1.6,1.1,3.2,0.8,4.8,0.7c2.2-0.1,4,0.2,5,2.5c0.3,0.6-0.6,0.7-0.9,1.2c-0.7,1.8-1.8,2.6-4,2.4
			c-2-0.1-3.9,1-6.1,1c-2.8,0.1-5.2-1.8-8.1-1.2c-0.8,0.2-0.5-1.2-0.8-1.4c-2.1-1.4-4.4-2.5-6.2-4.3c-0.3-0.2-1.1-0.3-1.3-0.1
			c-1.7,1.9-3,0.4-3.3-0.8c-0.3-1.5-1.2-1.1-2-1.4c-1.9-0.7-3.4-2-3.1-4.3c0.2-1.9-0.7-4,0.6-5.7c0.6-0.7,0-0.9-0.3-1.1
			c-1.3-0.8-1.2-2.1-1.5-3.4c-0.2-0.7-1-1.1,0-1.8c0.8-0.5,1.2-1.4,2.3-1.7c1.3-0.5,2.9-0.9,3.3-2.8c0.3-1.4,2.9-0.6,2.8-2.8
			c0-0.3,0.7-0.7,1-1.1l8.8-0.9c0.6,0.8,1.5,0.6,2.3,0.5c3.7-0.3,7.3,0.8,10.8,1.7c1,0.2,1-0.6,1.4-0.6c1.4,0,2.7-0.1,4.1,0.8
			c1.3,0.8,2.4,1.3,2.5,3c0,0.8,3.2,4.4,4.4,5.1c2.6,1.7,3,4.7,4.5,7.1c1,1.7-1.4,5.3-4,5.8c-1.4,0.3-3,2.3-4.6,0.3
			c-0.5,1.8-1.5-0.3-2.5,0.3C236.9,131.2,233.7,132.6,229.9,132.3z M223.2,130.1c2,1.2,2.7,1.2,5.8,0c-2.2,0-4.1,0-5-0.4
			c-4.2-0.8-7.3-2.5-10.9-1C216.5,128.3,219.5,130.7,223.2,130.1z M241,123.7c-0.2-0.6-0.5-0.8-1-0.7c-0.3,0-0.9-0.1-0.9,0
			c-0.2,0.5,0.2,0.9,0.7,1c0.4,0.1,0.8-0.2-0.7-1c-0.3-1.2-1-2-2.3-2c-1.6,0-2.9-0.6-15.8-3c2.8,0,5.1,0.2,7.3-0.1
			c2.7-0.4,5.1,1.1,7.7,1.2c1.1,0,2.2,1.1,3.3,1.6c0.4,0.2,0.9,0.2,1.4,0.3c0.5,0,1.1,0.2,1.3-0.4c0.1-0.4,0.1-1-0.1-1.3
			c-2.4-2.8-5.4-4.8-8.9-5.9c-2.2-0.7-4.7-1-6.6,0.1c-1.8,1.2-4.1,1.9,6.8,5.5c-4,0.4-8.2-1.1-12.9,2c2.3,0,3.6,0,4.8,0
			c4.1,0.1,8.3-0.7,12.1,2C237.5,123.3,238.3,123,241,123.7z M238.7,126.6c-1.4-0.5-2.2-0.6-2.5-1c-1.2-1.3-1.9-0.5-2.7,0.3
			c-0.5,0.5-0.7,1-0.3,1.7c0.3,0.5,0.9,0.3,1.3,0.3C235.8,128.2,236.6,126.8,238.7,126.6z M218,126.5c1.4,0.2,2.3,1.7,3.8,1.4
			c0.4-0.1,0.8-0.3,1.2-0.5c-0.6-0.5-1-1.1-1.1-2c0-0.6-1.2-0.8-1.5-0.3C219.8,126.3,218.5,125.6,218,126.5z M210.9,126.3
			c-1.1-0.4-2.2-0.9-2.9,0.4c-0.1,0.3,0.2,1.1,0.5,1.2C209.8,128.2,210.3,127.3,210.9,126.3z M239.3,109.5c-1.1-0.3-1.2-1.5-2.3-1.5
			c-0.3,0-0.5,0.2-0.8,0.3c0.4,0.9,0.9,1.6,1.9,1.6C238.3,110,238.6,109.8,239.3,109.5z"/>
		<path d="M172.3,158c1.5,0.2,2.7,0.1,4,0.7c3,1.2,6.3,1.6,9.5,2.4c0.6,0.1,1.4,0,1.9,0.3c3.9,2.4,8.1,1.6,12.3,1.8
			c1.1,0,1.9-0.2,2.6-1c0.4-0.5,5-2,5.7-2c2.8,0,5.6,0,8.7,0c-0.7,1.6-1.2,2.9-1.9,4.2c-1,1.8-5.1,2.9-5.7,1.3
			c-1.3-3.2-3.4-0.8-4.9-1.3c-0.2-0.1-0.9,0.8-1.3,1.4c-0.1,0.1,0.6,0.7,1,1c0.7,0.6,1.7,0.7,2.5,1.4c1.5,1.3,1.6,2.8,1.4,4.4
			c-0.1,0.5-0.8,1.2-1.3,1.4c-0.3,0.1-0.9-0.6-1.4-1c-0.3-0.2-0.5-0.5-0.7-0.7c-1,0.7-0.6,1.8-0.3,2.6c0.3,0.7,1.3,1.2-0.3,1.4
			c-0.9,0.1-1.6,0.9-1.8,1.5c-0.3,0.8-0.2,1.7-1.4,1.5c-0.9-0.1-0.7-0.9-0.8-1.5c0-0.1-0.2-0.2-0.3-0.4c-2.5,2.6-2.4-0.7-3.5-1.5
			c-0.6-0.4-1.2-0.9-1.7-0.5c-0.9,0.8,0.5,0.9,0.5,1.4c0.1,0.5,0.2,1.3,0,1.4c-0.5,0.3-0.8-0.4-1.2-0.7c-0.6-0.5-1.1-0.4-1.7,0.1
			c-1.8,1.4-2.7,0.7-3.5-1.2c-0.5-1.1-1.5-1.8-1.8,0.4c-0.1,0.8-0.8,0-0.8-0.3c0-1.2-0.6-1.4-1.5-1.3c-1.6,0.2-1.5,0.2-1.2-0.8
			c0.1-0.4,1.1-0.5,0.4-1c-0.3-0.2-1-0.2-1.3,0c-0.7,0.6-1.9,1.2-1.2,2.3c0.5,0.8,0.8,1.1,0,1.8c-0.9,0.9-1.8,0.6-2.7,0.5
			c-0.6-0.1-0.6-0.9-0.4-1.3c0.7-1.2,1.9-2.1,2.5-3.5c0.7-1.5,0.3-2.9,0.5-4.3c0.1-0.5-0.5-0.6-0.9-0.9c-2.3-1.4-4.6-2.9-6.5-4.8
			C172,161.7,171.7,160.2,172.3,158z M192.1,174.6c0.1,0.1,0.2,0.2,0.4,0.4c0.1-0.2,0.3-0.4,0.3-0.7c0-0.1-0.2-0.2-0.3-0.3
			C192.4,174.2,192.3,174.4,192.1,174.6z M186.6,171.9c0.1-0.1,0.2-0.2,0.4-0.4c-0.2-0.1-0.4-0.3-0.7-0.3c-0.1,0-0.2,0.2-0.3,0.3
			C186.2,171.6,186.4,171.7,186.6,171.9z"/>
		<path d="M248.1,112.8c-0.2,0.5-0.3,1-0.5,1c-1.2,0.2-3.6-1.9-3.6-3.1c0-0.5,0.4-1,1-0.7C246.4,110.6,247.3,111.8,248.1,112.8z"/>
		<path d="M207.6,175.1c0.6,0.3,0.4,0.9,0.3,1.3c0,0.1-0.5,0.4-0.6,0.4c-0.6-0.3-0.4-0.8-0.3-1.3C207,175.4,207.4,175.3,207.6,175.1
			z"/>
		<path d="M195.9,178.6c-0.1,0.1-0.3,0.3-0.3,0.3c-0.2-0.1-0.5-0.3-0.6-0.5c-0.2-0.4,0-0.6,0.4-0.4
			C195.6,178.1,195.8,178.4,195.9,178.6z"/>
		<path d="M240,61.4c-0.2,0.2-0.4,0.5-0.6,0.4c-0.4-0.1-0.5-0.4-0.2-0.6c0.2-0.1,0.5-0.2,0.8-0.3C240,61.1,240,61.3,240,61.4z"/>
		<path class="st0" d="M158.9,118.4c-3.5-0.1-6.8-0.5-9.9-1.9c0.8-1.1,2.3,0.1,3.1-1c2.5-4,6.5-2.1,10-2.4c1.4-0.1,1.9,1.7,3,2.4
			c-0.6,0.8-1.5,0.4-2.3,0.5c-0.4,0.1-1,0.3-0.3,0.9c0.4,0.3,1.4-0.2,1.4,0.7c0,0.5-0.8,0.3-1.3,0.4c-0.5,0.2-0.6,0.8,0,0.9
			c0.8,0.2,1.7,0.1,2.5,0c1,0,1.1,0.7,0.9,1.3c-0.2,0.8-1.3,0.9-1.5,0.6c-0.9-2.4-2.6,0.6-4-0.7c-0.8-0.7-2.6-0.4-4,0.6
			c-1,0.7-2.8,0.1-4.4,0.1C153.9,118.4,156.6,119.2,158.9,118.4z"/>
		<path class="st0" d="M156.9,127.8c-1.8,0.5-2.5-1-3.7-1.2c-0.3-0.1-1.7-0.6-0.7-1.7c0.7-0.7,1.4-1.6,2.4-0.5
			C155.7,125.5,156.3,126.7,156.9,127.8z"/>
		<path class="st0" d="M165.8,129.8c-3.2,0-6.4,0-9.6,0c1.5-1.1,3.2-0.7,4.8-0.8c1.6-0.1,3.2,0,4.8,0
			C165.8,129.3,165.8,129.6,165.8,129.8z"/>
		<path class="st0" d="M168.2,128c-1.6-0.1-1.2-1.1-1.2-1.8c-0.1-1.2,0.7-1.2,1.6-1.3c1.3-0.1,1.6,0.9,2.4,1.5
			C170,127,169,127.6,168.2,128z"/>
		<path class="st0" d="M167.5,129.9c0.8-0.7,1.1-1,1.5-1.4c0.9-0.8,1.8-0.6,2.8-0.2c0.2,0.1,0.3,0.6,0.2,0.8
			c-0.3,1.5-1.5,0.7-2.3,0.9C169.3,130.1,168.8,129.9,167.5,129.9z"/>
		<path class="st0" d="M177,129.5c-0.3,0.2-0.5,0.5-0.8,0.4c-0.8-0.1-2.1,0.6-2.2-1c0-0.9,0.3-1.1,1-0.5c0.3,0.3,0.8,0.3,1.2,0.5
			C176.5,129.1,176.7,129.4,177,129.5z"/>
		<path class="st0" d="M180,127c-0.1,0.3-0.2,0.8-0.3,0.8c-0.9,0-1.1-0.9-1.7-1.3c0.3-0.2,0.5-0.4,0.8-0.5
			C179.4,126,180.1,126.1,180,127z"/>
		<path class="st0" d="M220.9,118c1.2-2.6,3.5-3.4,5.3-4.5c1.8-1.2,4.4-0.8,6.6-0.1c3.5,1.1,6.5,3.1,8.9,5.9
			c0.2,0.3,0.3,0.9,0.1,1.3c-0.2,0.6-0.8,0.4-1.3,0.4c-0.5,0-1-0.1-1.4-0.3c-1.1-0.5-2.2-1.6-3.3-1.6c-2.6,0-5-1.5-7.7-1.2
			C226,118.2,223.7,118,220.9,118z"/>
		<path class="st0" d="M239,123c-0.7,0-1.5,0.3-1.9,0c-3.7-2.6-8-1.9-12.1-2c-1.3,0-2.6,0-4.8,0c4.7-3.1,8.9-1.6,12.9-2
			c0.9,1.4,2.1,2,3.7,2C238,121,238.7,121.8,239,123z"/>
		<path class="st0" d="M224,129.7c-4.5,1-7.5-1.4-10.9-1C216.7,127.2,219.8,128.9,224,129.7z"/>
		<path class="st0" d="M238.7,126.6c-2.2,0.2-2.9,1.5-4.3,1.4c-0.5-0.1-1,0.2-1.3-0.3c-0.3-0.6-0.2-1.2,0.3-1.7
			c0.8-0.8,1.6-1.7,2.7-0.3C236.6,126.1,237.3,126.1,238.7,126.6z"/>
		<path class="st0" d="M218,126.5c0.5-0.9,1.8-0.3,2.4-1.3c0.3-0.5,1.5-0.3,1.5,0.3c0.1,0.9,0.5,1.5,1.1,2c-0.4,0.2-0.8,0.4-1.2,0.5
			C220.2,128.2,219.4,126.7,218,126.5z"/>
		<path class="st0" d="M223.2,130.1c1.7,0,3.6,0,5.8,0C225.9,131.3,225.2,131.3,223.2,130.1z"/>
		<path class="st0" d="M210.9,126.3c-0.6,1-1.2,1.9-2.4,1.6c-0.2,0-0.6-0.9-0.5-1.2C208.7,125.4,209.8,125.9,210.9,126.3z"/>
		<path class="st0" d="M239.3,109.5c-0.7,0.3-1,0.5-1.3,0.5c-1-0.1-1.5-0.8-1.9-1.6c0.3-0.1,0.5-0.3,0.8-0.3
			C238.1,107.9,238.2,109.1,239.3,109.5z"/>
		<path class="st0" d="M241,123.7c-0.4,0.1-0.9,0.3-1.3,0.3c-0.5-0.1-0.8-0.4-0.7-1c0-0.1,0.6,0,0.9,0
			C240.4,123,240.8,123.1,241,123.7z"/>
		<path class="st0" d="M192.1,174.6c0.1-0.2,0.2-0.4,0.4-0.6c0.1,0.1,0.3,0.2,0.3,0.3c-0.1,0.2-0.2,0.4-0.3,0.7
			C192.4,174.9,192.3,174.8,192.1,174.6z"/>
		<path class="st0" d="M186.6,171.9c-0.2-0.1-0.4-0.2-0.6-0.4c0.1-0.1,0.2-0.3,0.3-0.3c0.2,0.1,0.4,0.2,0.7,0.3
			C186.9,171.6,186.8,171.7,186.6,171.9z"/>
	</g>
</g>
</svg>
