<?xml version="1.0" standalone="no"?>
<!DOCTYPE svg PUBLIC "-//W3C//DTD SVG 20010904//EN"
 "http://www.w3.org/TR/2001/REC-SVG-20010904/DTD/svg10.dtd">
<svg version="1.0" xmlns="http://www.w3.org/2000/svg"
 width="375.000000pt" height="375.000000pt" viewBox="0 0 375.000000 375.000000"
 preserveAspectRatio="xMidYMid meet">
<metadata>
Created by potrace 1.14, written by Peter Selinger 2001-2017
</metadata>
<g transform="translate(0.000000,375.000000) scale(0.100000,-0.100000)"
fill="#000000" stroke="none">
<path d="M1918 3725 c-2 -3 -34 -8 -69 -11 -119 -10 -189 -23 -189 -35 0 -5
-12 -9 -26 -9 -15 0 -34 -9 -44 -20 -9 -10 -37 -28 -61 -38 -24 -11 -60 -33
-79 -50 -72 -64 -95 -82 -102 -82 -5 0 -8 -7 -8 -16 0 -8 -12 -28 -27 -43 -28
-28 -63 -91 -63 -114 0 -15 -46 -107 -52 -102 -2 2 -4 -13 -5 -33 0 -20 -8
-55 -16 -77 -9 -22 -16 -54 -17 -72 0 -17 -4 -34 -8 -37 -9 -5 -8 -145 1 -213
2 -18 11 -50 19 -70 29 -72 47 -170 29 -159 -14 9 -22 -72 -14 -138 6 -52 8
-57 14 -31 l7 30 1 -27 c1 -19 6 -28 17 -28 13 0 15 -7 10 -37 -4 -21 -7 -49
-7 -63 -1 -37 24 -134 36 -142 6 -5 6 -11 -3 -20 -17 -17 -16 -95 3 -105 8 -5
16 -21 17 -36 1 -15 6 -27 10 -27 4 0 8 -11 8 -25 0 -25 38 -107 52 -113 4 -2
8 -12 8 -23 0 -11 4 -27 9 -37 34 -68 35 -69 11 -109 -13 -21 -38 -59 -57 -85
-31 -43 -37 -46 -86 -50 -60 -5 -291 -67 -357 -97 -25 -10 -88 -29 -140 -41
-52 -13 -107 -29 -121 -36 -15 -7 -29 -11 -32 -8 -3 4 -32 -6 -64 -21 -31 -15
-69 -31 -83 -36 -14 -4 -79 -30 -145 -57 -140 -58 -139 -55 -78 -176 140 -280
372 -536 653 -721 176 -116 354 -191 583 -247 127 -30 142 -32 384 -36 284 -4
387 6 566 60 272 81 476 192 710 386 147 122 332 354 416 519 29 59 30 63 12
72 -10 6 -21 7 -25 4 -3 -3 -6 -2 -6 4 0 10 -151 103 -168 103 -4 0 -13 5 -20
12 -13 13 -64 32 -138 53 -27 7 -93 32 -145 55 -156 69 -349 141 -429 161 -41
10 -80 26 -87 35 -7 9 -15 36 -19 60 -3 24 -10 44 -15 44 -5 0 -9 -5 -9 -12 0
-6 -3 -9 -6 -5 -10 10 5 44 41 89 19 23 35 50 35 59 0 9 9 27 19 40 10 14 25
43 31 67 7 23 17 42 21 42 4 0 11 21 15 48 3 26 10 52 14 57 4 6 11 33 15 60
4 28 9 54 12 59 4 5 5 42 4 82 -2 62 1 76 18 93 20 20 20 21 1 31 -29 16 -24
40 10 51 17 6 30 13 30 16 0 11 -35 63 -43 63 -5 0 -6 9 -2 19 3 11 1 22 -4
26 -7 4 -1 21 14 45 14 22 25 53 25 69 0 16 4 32 9 35 5 3 11 20 14 38 3 18
15 67 26 108 25 92 36 258 17 280 -17 21 -48 128 -41 141 4 5 1 16 -5 24 -6 8
-9 19 -5 25 3 5 2 10 -4 10 -9 0 -23 35 -35 91 -3 14 -26 47 -51 72 -25 26
-45 49 -45 52 0 12 -123 125 -135 125 -7 0 -18 7 -25 15 -17 20 -98 57 -109
51 -5 -3 -11 2 -13 12 -9 32 -227 82 -364 82 -22 0 -43 -2 -46 -5z m4 -486
c23 -12 65 -11 73 1 14 23 153 0 192 -32 7 -5 16 -7 21 -4 5 3 53 -11 108 -30
84 -30 105 -43 150 -88 39 -39 55 -66 68 -109 9 -31 21 -59 26 -62 6 -3 10
-19 10 -36 0 -16 4 -29 9 -29 5 0 12 -14 16 -31 4 -17 17 -54 30 -83 20 -44
23 -67 23 -166 0 -63 -5 -140 -10 -170 -11 -54 -12 -73 -16 -158 -2 -34 -8
-49 -33 -71 -17 -16 -30 -35 -29 -42 4 -25 0 -39 -10 -39 -5 0 -7 7 -4 15 4 8
1 15 -5 15 -6 0 -11 -7 -11 -16 0 -8 -4 -12 -10 -9 -5 3 -10 2 -10 -3 0 -4
-19 -8 -42 -8 -40 1 -42 -1 -50 -34 -5 -19 -13 -44 -19 -55 -5 -11 -13 -43
-17 -69 -8 -54 -25 -67 -30 -23 -2 15 -9 27 -16 27 -8 0 -19 7 -26 15 -7 8
-20 15 -30 15 -9 0 -25 9 -34 19 -17 19 -48 18 -73 -1 -7 -5 -14 -5 -17 0 -3
5 -17 10 -31 10 -24 0 -25 -2 -11 -22 8 -11 19 -20 25 -19 18 4 61 -16 61 -28
0 -9 -18 -10 -67 -4 -88 11 -204 17 -320 18 -92 0 -110 6 -75 26 14 8 15 12 5
22 -11 11 -13 10 -13 -1 0 -11 -3 -11 -12 -2 -15 15 -108 16 -108 1 0 -5 -4
-8 -9 -5 -5 4 -19 -6 -30 -21 l-20 -28 -1 32 c0 19 6 36 16 41 13 7 8 13 -27
31 -23 13 -52 20 -63 17 -16 -4 -26 3 -41 25 -11 17 -35 37 -53 44 -42 18 -67
75 -76 170 -4 39 -13 108 -21 154 -17 93 -20 317 -6 326 5 3 12 19 16 36 4 17
13 33 20 36 8 2 21 36 29 74 9 38 23 83 30 101 8 18 20 47 26 64 7 19 25 39
46 50 19 10 34 22 34 26 0 5 8 8 18 8 10 0 27 6 38 14 11 8 49 20 84 26 35 6
78 19 95 28 58 30 159 36 207 11z m-701 -810 c-5 -13 -10 -19 -10 -12 -1 15
10 45 15 40 3 -2 0 -15 -5 -28z m774 -575 c93 -2 174 -9 179 -14 13 -13 -21
-50 -46 -50 -10 0 -18 -4 -18 -9 0 -13 -55 -21 -155 -22 -73 0 -100 4 -145 23
-62 27 -110 56 -110 68 0 13 40 19 85 13 22 -2 116 -6 210 -9z m-299 -81 c35
-38 45 -73 20 -73 -17 0 -86 69 -86 86 0 13 10 24 23 24 5 0 25 -17 43 -37z
m544 1 c0 -22 -18 -54 -48 -86 -14 -16 -22 -33 -19 -42 11 -27 -4 -46 -34 -46
-16 0 -29 -4 -29 -8 0 -5 -13 -9 -30 -9 -16 0 -30 6 -30 12 0 9 -37 11 -137
10 -142 -3 -168 3 -158 35 3 11 -1 20 -10 24 -8 3 -15 10 -15 16 0 14 33 13
48 -2 8 -8 56 -13 136 -15 l125 -3 44 34 c24 19 53 37 64 40 11 4 30 18 43 31
27 28 50 33 50 9z m-820 -168 c0 -13 3 -33 6 -43 3 -10 -2 -7 -10 7 -18 29
-21 60 -6 60 6 0 10 -11 10 -24z m477 -645 c30 -15 115 -34 171 -39 28 -2 52
-5 52 -7 0 -20 -115 -165 -130 -165 -4 0 -15 18 -25 41 -20 44 -67 89 -93 89
-16 0 -31 17 -57 65 -6 11 -19 32 -29 47 l-18 28 56 -25 c30 -13 64 -29 73
-34z m96 -362 c13 -21 1 -69 -18 -69 -13 0 -13 3 1 25 20 31 11 59 -16 52 -11
-3 -17 -1 -14 4 8 14 35 7 47 -12z"/>
<path d="M1570 2700 c-36 -3 -72 -10 -81 -14 -10 -4 -20 -3 -24 3 -4 8 -16 6
-36 -4 -28 -15 -39 -35 -19 -35 18 0 10 -24 -26 -77 l-36 -52 23 -31 c24 -30
39 -33 97 -15 16 6 22 3 22 -9 0 -9 -6 -16 -14 -16 -8 0 -16 -10 -18 -22 -7
-49 128 -89 204 -62 23 8 50 22 60 30 9 9 25 14 34 10 10 -4 26 3 42 19 14 14
36 28 49 31 18 5 23 13 24 38 0 17 4 40 8 50 13 34 0 66 -33 83 -17 9 -35 22
-41 29 -14 18 -115 54 -145 52 -14 0 -54 -4 -90 -8z m70 -95 c7 -8 8 -15 3
-15 -5 0 -10 -7 -10 -15 0 -8 6 -15 14 -15 7 0 13 -3 13 -7 0 -5 -32 -9 -70
-9 -39 -1 -70 0 -70 2 0 3 10 9 23 14 22 9 22 9 -3 10 -30 0 -66 20 -39 20 9
0 22 7 29 15 7 9 29 15 55 15 26 0 48 -6 55 -15z m-80 -115 c12 -23 7 -25 -21
-9 -11 5 -17 14 -14 20 10 15 23 11 35 -11z m144 1 c4 -5 0 -12 -6 -14 -8 -3
-6 -6 5 -6 27 -1 20 -21 -8 -21 -20 0 -25 5 -25 25 0 25 23 35 34 16z m96 -11
c0 -5 -2 -10 -4 -10 -3 0 -8 5 -11 10 -3 6 -1 10 4 10 6 0 11 -4 11 -10z m-35
-20 c3 -5 -1 -10 -9 -10 -9 0 -16 5 -16 10 0 6 4 10 9 10 6 0 13 -4 16 -10z
m-122 -7 c-13 -2 -35 -2 -50 0 -16 2 -5 4 22 4 28 0 40 -2 28 -4z"/>
<path d="M2159 2691 c-19 -3 -49 -18 -65 -34 -16 -15 -39 -35 -51 -45 -18 -14
-20 -21 -11 -42 6 -14 11 -45 12 -69 1 -32 6 -47 21 -55 11 -6 25 -17 31 -25
6 -8 16 -11 23 -7 11 7 68 -27 83 -48 4 -6 42 -11 88 -10 67 0 82 4 94 20 20
26 3 44 -43 45 -22 1 -28 3 -16 6 11 3 31 10 45 16 14 6 42 11 63 12 50 2 82
33 73 70 -4 14 -25 46 -46 69 -22 24 -40 48 -40 54 0 19 -32 29 -115 36 -44 4
-87 9 -95 10 -8 2 -31 0 -51 -3z m226 -31 c3 -5 2 -10 -4 -10 -5 0 -13 5 -16
10 -3 6 -2 10 4 10 5 0 13 -4 16 -10z m-27 -54 c58 -30 83 -83 27 -58 -46 21
-61 12 -17 -10 53 -26 49 -33 -8 -13 -23 8 -67 15 -98 15 -67 0 -61 12 11 21
l52 6 -60 2 -60 2 28 24 c32 29 83 33 125 11z m-134 -121 c6 -16 -3 -19 -29
-9 -13 5 -14 8 -3 15 19 12 25 11 32 -6z m140 9 c20 -8 11 -24 -15 -24 -19 0
-25 11 -12 23 8 8 8 8 27 1z m-259 -14 c-3 -5 -10 -10 -16 -10 -5 0 -9 5 -9
10 0 6 7 10 16 10 8 0 12 -4 9 -10z m130 -25 l50 -14 -50 6 c-27 3 -61 9 -75
14 l-25 7 25 1 c14 0 48 -6 75 -14z"/>
<path d="M2440 2641 c0 -13 29 -35 37 -28 7 8 -15 37 -28 37 -5 0 -9 -4 -9 -9z"/>
<path d="M1720 2152 c0 -20 31 -52 68 -71 26 -14 29 -48 7 -77 -19 -26 -19
-36 2 -32 10 2 18 12 18 22 0 11 6 21 14 24 8 3 11 0 7 -7 -4 -6 -1 -11 8 -11
9 0 16 -4 16 -10 0 -5 7 -7 15 -4 8 4 15 1 15 -5 0 -17 60 -8 60 9 1 13 2 13
13 -1 7 -8 20 -18 30 -22 22 -8 57 20 50 40 -4 10 0 13 13 11 28 -5 31 36 3
55 -11 9 -18 20 -14 26 8 14 45 14 45 0 0 -21 54 -4 67 21 12 24 12 25 -29 28
-23 2 -61 -4 -85 -13 -53 -20 -117 -17 -227 13 -96 27 -96 27 -96 4z"/>
<path d="M2726 2494 c-21 -20 -20 -36 4 -81 11 -21 20 -45 20 -55 0 -9 5 -20
10 -23 6 -4 10 27 10 84 0 96 -9 111 -44 75z"/>
<path d="M2706 2214 c-9 -24 -8 -25 13 -12 11 7 17 16 15 20 -8 13 -21 9 -28
-8z"/>
</g>
</svg>
